<svg t="1745638073470" class="icon" viewBox="0 0 1024 1024" version="1.1" xmlns="http://www.w3.org/2000/svg" p-id="6283" width="200" height="200"><path d="M512.94 212.02L772.5 362.85l-0.84 300.2-260.4 149.37L251.7 661.59l0.84-300.2 260.4-149.37m0.21-137.9c-10.99 0-21.98 2.83-31.84 8.48L156.8 268.75a64.029 64.029 0 0 0-32.16 55.34l-1.05 374.1a64.04 64.04 0 0 0 31.84 55.52l323.46 187.96a63.925 63.925 0 0 0 32.16 8.66c10.99 0 21.98-2.83 31.84-8.48L867.4 755.7a64.029 64.029 0 0 0 32.16-55.34l1.05-374.1a64.04 64.04 0 0 0-31.84-55.52L545.3 82.79a63.9 63.9 0 0 0-32.15-8.67z" fill="#C8E7F2" p-id="6284"></path><path d="M512 811.28l-2 1.15-259.56-150.84 0.84-300.2 260.4-149.37 0.31 0.18V74.13h-0.11c-10.99 0-21.98 2.83-31.84 8.48l-324.5 186.14a63.999 63.999 0 0 0-32.15 55.34l-1.05 374.1a64.04 64.04 0 0 0 31.84 55.52l323.46 187.96a63.925 63.925 0 0 0 34.36 8.62V811.28z" fill="#77D4F5" p-id="6285"></path><path d="M510.56 950.32h-0.02c-35.35 0-64-28.65-64-64V576.5c0-35.35 28.65-64 64-64h0.02c35.35 0 64 28.65 64 64v309.82c0 35.35-28.65 64-64 64z" fill="#77D4F5" p-id="6286"></path><path d="M479.02 632.16L364.61 566.1c-30.16-17.41-40.5-55.98-23.08-86.15l0.94-1.62c17.41-30.16 55.98-40.5 86.15-23.08l114.41 66.06c30.16 17.41 40.5 55.98 23.08 86.15l-0.94 1.62c-17.42 30.16-55.99 40.49-86.15 23.08z" fill="#77D4F5" p-id="6287"></path><path d="M512 512.54v437.75c34.68-0.77 62.56-29.1 62.56-63.96V576.5c0-34.86-27.88-63.2-62.56-63.96z" fill="#C8E7F2" p-id="6288"></path><path d="M574.56 570.86c-1.66-19.9-12.71-38.68-31.31-49.42L512 503.39v137.34c21.34-0.43 41.95-11.69 53.4-31.53l0.94-1.62c4.79-8.3 7.47-17.24 8.23-26.19v-10.53z" fill="#C8E7F2" p-id="6289"></path></svg>